<svg xmlns="http://www.w3.org/2000/svg" viewBox="0 0 100 100" width="100%" height="100%">
  <!-- Outer organic luxury shape (resembling poured liquid resin drop) -->
  <path d="M50 5 C75 5, 95 25, 95 50 C95 75, 70 95, 50 95 C25 95, 5 75, 5 50 C5 20, 25 5, 50 5 Z" 
        fill="none" 
        stroke="#C5A880" 
        stroke-width="2" 
        stroke-linecap="round"/>
  
  <!-- Subtle inner liquid swirl -->
  <path d="M25 45 C35 30, 65 30, 75 45 C85 60, 55 80, 50 80" 
        fill="none" 
        stroke="#C5A880" 
        stroke-width="1" 
        stroke-dasharray="3 3" 
        opacity="0.6"/>
  
  <!-- Stylized Elegant 'Z' Letter (artisan font-like monogram) -->
  <text x="50%" y="60%" 
        font-family="'Cormorant Garamond', 'Georgia', serif" 
        font-size="44" 
        font-weight="300"
        fill="#2C2C2C" 
        text-anchor="middle">Z</text>
        
  <!-- Sparkles / Gold dust symbols -->
  <path d="M32 30 L34 34 L38 32 L34 30 L32 26 L30 30 L26 32 L30 34 Z" fill="#C5A880"/>
  <path d="M72 68 L73 70 L75 69 L73 68 L72 66 L71 68 L69 69 L71 70 Z" fill="#C5A880"/>
</svg>
